<svg width="120" height="120" viewBox="0 0 120 120" xmlns="http://www.w3.org/2000/svg">
  <defs>
    <linearGradient id="eyeGradient" x1="0%" y1="0%" x2="100%" y2="100%">
      <stop offset="0%" style="stop-color:#9C27B0"/>
      <stop offset="100%" style="stop-color:#03A9F4"/>
    </linearGradient>
    <linearGradient id="pupilGradient" x1="0%" y1="0%" x2="100%" y2="100%">
      <stop offset="0%" style="stop-color:#03A9F4"/>
      <stop offset="100%" style="stop-color:#9C27B0"/>
    </linearGradient>
  </defs>
  <ellipse cx="60" cy="60" rx="45" ry="35" fill="url(#eyeGradient)" stroke="#ffffff" stroke-width="2"/>
  <g stroke="#ffffff" stroke-width="1" opacity="0.6">
    <line x1="25" y1="45" x2="95" y2="45"/>
    <line x1="25" y1="55" x2="95" y2="55"/>
    <line x1="25" y1="65" x2="95" y2="65"/>
    <line x1="25" y1="75" x2="95" y2="75"/>
    <line x1="35" y1="35" x2="35" y2="85"/>
    <line x1="50" y1="35" x2="50" y2="85"/>
    <line x1="70" y1="35" x2="70" y2="85"/>
    <line x1="85" y1="35" x2="85" y2="85"/>
    <circle cx="35" cy="45" r="2" fill="#ffffff"/>
    <circle cx="50" cy="55" r="2" fill="#ffffff"/>
    <circle cx="70" cy="65" r="2" fill="#ffffff"/>
    <circle cx="85" cy="75" r="2" fill="#ffffff"/>
  </g>
  <circle cx="60" cy="60" r="15" fill="url(#pupilGradient)" stroke="#ffffff" stroke-width="1"/>
  <circle cx="55" cy="55" r="5" fill="#ffffff" opacity="0.8"/>
  <path d="M 25 45 Q 60 35 95 45" stroke="#ffffff" stroke-width="2" fill="none" opacity="0.7"/>
  <path d="M 25 75 Q 60 85 95 75" stroke="#ffffff" stroke-width="2" fill="none" opacity="0.7"/>
</svg>
